<svg width="81" height="80" viewBox="0 0 81 80" fill="none" xmlns="http://www.w3.org/2000/svg">
<path d="M40.021 1.45042e-05C30.3784 -0.00530977 21.0585 3.47289 13.777 9.79427C6.49551 16.1156 1.7427 24.8546 0.393547 34.4024C-0.955602 43.9501 1.18974 53.6639 6.43461 61.7553C11.6795 69.8467 19.6708 75.7711 28.9373 78.4378V54.4944C25.5934 53.5065 23.1215 50.0746 23.1215 45.9947V27.9992C23.1894 27.5225 23.4271 27.0863 23.7908 26.7707C24.1545 26.4551 24.6199 26.2814 25.1015 26.2814C25.583 26.2814 26.0484 26.4551 26.4121 26.7707C26.7758 27.0863 27.0135 27.5225 27.0814 27.9992V40.8948C27.09 41.1273 27.1828 41.3488 27.3425 41.518C27.5021 41.6872 27.7178 41.7927 27.9494 41.8148C28.0796 41.8164 28.2088 41.792 28.3294 41.7429C28.4499 41.6938 28.5595 41.6211 28.6516 41.529C28.7436 41.437 28.8163 41.3274 28.8654 41.2068C28.9145 41.0862 28.939 40.957 28.9373 40.8268V27.9752C29.0053 27.4985 29.2429 27.0623 29.6067 26.7467C29.9704 26.4311 30.4358 26.2574 30.9173 26.2574C31.3988 26.2574 31.8642 26.4311 32.2279 26.7467C32.5917 27.0623 32.8293 27.4985 32.8972 27.9752V40.9868C32.8972 41.2329 32.995 41.469 33.169 41.643C33.3431 41.817 33.5791 41.9148 33.8252 41.9148C34.0713 41.9148 34.3074 41.817 34.4814 41.643C34.6554 41.469 34.7532 41.2329 34.7532 40.9868C34.7572 40.9349 34.7572 40.8828 34.7532 40.8308V27.9752C34.8211 27.4985 35.0588 27.0623 35.4225 26.7467C35.7862 26.4311 36.2516 26.2574 36.7331 26.2574C37.2147 26.2574 37.68 26.4311 38.0438 26.7467C38.4075 27.0623 38.6451 27.4985 38.7131 27.9752V45.9987C38.7131 50.0786 36.2411 53.5105 32.8972 54.4984V79.3657C37.9039 80.2646 43.0354 80.2076 48.0208 79.1977V52.8385C44.1409 51.3785 41.257 45.9387 41.257 39.4549C41.257 31.8551 45.2249 25.6753 50.1207 25.6753C55.0166 25.6753 58.9885 31.8471 58.9885 39.4549C58.9885 45.7587 56.2686 51.0545 52.5447 52.7105V77.9978C61.584 75.0267 69.2681 68.9305 74.2173 60.8039C79.1665 52.6772 81.0565 43.0524 79.5481 33.6577C78.0396 24.2629 73.2315 15.7136 65.987 9.54485C58.7424 3.37608 49.5361 -0.00808476 40.021 1.45042e-05Z" fill="#2175C8"/>
<path d="M38.7131 27.9752V45.9987C38.7131 50.0786 36.2411 53.5105 32.8972 54.4984V79.3657C31.5622 79.1263 30.2405 78.8179 28.9373 78.4417V54.4944C25.5934 53.5065 23.1215 50.0746 23.1215 45.9947V27.9992C23.1894 27.5225 23.4271 27.0863 23.7908 26.7707C24.1545 26.4551 24.6199 26.2814 25.1015 26.2814C25.583 26.2814 26.0484 26.4551 26.4121 26.7707C26.7758 27.0863 27.0135 27.5225 27.0814 27.9992V40.7308C27.0774 40.7854 27.0774 40.8402 27.0814 40.8948C27.09 41.1273 27.1828 41.3488 27.3425 41.518C27.5021 41.6872 27.7178 41.7927 27.9494 41.8148C28.0796 41.8164 28.2088 41.792 28.3294 41.7429C28.4499 41.6938 28.5595 41.6211 28.6516 41.529C28.7436 41.437 28.8163 41.3274 28.8654 41.2068C28.9145 41.0862 28.939 40.957 28.9373 40.8268V27.9752C29.0053 27.4985 29.2429 27.0623 29.6067 26.7467C29.9704 26.4311 30.4358 26.2574 30.9173 26.2574C31.3988 26.2574 31.8642 26.4311 32.2279 26.7467C32.5917 27.0623 32.8293 27.4985 32.8972 27.9752V40.7988C32.8872 40.8598 32.8872 40.9219 32.8972 40.9828C32.8972 41.229 32.995 41.465 33.169 41.639C33.3431 41.813 33.5791 41.9108 33.8252 41.9108C34.0713 41.9108 34.3074 41.813 34.4814 41.639C34.6554 41.465 34.7532 41.229 34.7532 40.9828C34.7572 40.9309 34.7572 40.8788 34.7532 40.8268V27.9752C34.8211 27.4985 35.0588 27.0623 35.4225 26.7467C35.7862 26.4311 36.2516 26.2574 36.7331 26.2574C37.2147 26.2574 37.68 26.4311 38.0438 26.7467C38.4075 27.0623 38.6451 27.4985 38.7131 27.9752Z" fill="white"/>
<path d="M58.9845 39.4549C58.9845 45.7587 56.2646 51.0545 52.5407 52.7105V77.9978C51.0607 78.4921 49.5511 78.8929 48.0208 79.1977V52.8385C44.1409 51.3785 41.257 45.9387 41.257 39.4549C41.257 31.8551 45.2249 25.6753 50.1207 25.6753C55.0166 25.6753 58.9845 31.8471 58.9845 39.4549Z" fill="white"/>
</svg>
